<svg xmlns="http://www.w3.org/2000/svg" width="44" height="44" fill="none"><path fill="#fff" d="M44 22a21.931 21.931 0 0 1-6.444 15.556A21.931 21.931 0 0 1 22 44a21.931 21.931 0 0 1-15.556-6.444A21.931 21.931 0 0 1 0 22 21.931 21.931 0 0 1 6.444 6.444 21.931 21.931 0 0 1 22 0a21.931 21.931 0 0 1 15.556 6.444A21.931 21.931 0 0 1 44 22Z"/><g clip-path="url(#a)"><path fill="#303030" d="M32 15.799a8.551 8.551 0 0 1-2.363.647 4.077 4.077 0 0 0 1.804-2.266 8.193 8.193 0 0 1-2.6.992 4.099 4.099 0 0 0-7.093 2.804c0 .325.028.638.096.935-3.409-.166-6.425-1.8-8.452-4.289a4.128 4.128 0 0 0-.56 2.073c0 1.42.73 2.679 1.82 3.407a4.048 4.048 0 0 1-1.852-.505v.045a4.119 4.119 0 0 0 3.285 4.03 4.09 4.09 0 0 1-1.075.134c-.262 0-.527-.015-.776-.07.531 1.624 2.039 2.818 3.831 2.857a8.239 8.239 0 0 1-5.084 1.748 7.69 7.69 0 0 1-.981-.056 11.544 11.544 0 0 0 6.29 1.84c7.545 0 11.67-6.25 11.67-11.668 0-.18-.006-.356-.015-.53A8.18 8.18 0 0 0 32 15.8Z"/></g><defs><clipPath id="a"><path fill="#fff" d="M12 12h20v20H12z"/></clipPath></defs></svg>