<svg aria-hidden="true" style="position: absolute; width: 0; height: 0; overflow: hidden;" version="1.1" xmlns="http://www.w3.org/2000/svg" xmlns:xlink="http://www.w3.org/1999/xlink">
<defs>
<symbol id="icon-facebook" viewBox="0 0 32 32">
<path  d="M21.33 5.314h2.92v-5.088c-1.238-0.144-2.672-0.226-4.125-0.226-0.046 0-0.092 0-0.138 0l0.007-0c-4.212 0-7.094 2.65-7.094 7.52v4.48h-4.65v5.688h4.648v14.312h5.698v-14.31h4.46l0.708-5.69h-5.17v-3.92c0.002-1.644 0.444-2.768 2.736-2.768z"></path>
</symbol>
<symbol id="icon-instagram" viewBox="0 0 32 32">
<path  d="M31.968 9.408c-0.074-1.7-0.35-2.87-0.744-3.882-0.424-1.112-1.053-2.060-1.849-2.839l-0.001-0.001c-0.78-0.791-1.724-1.417-2.778-1.824l-0.054-0.018c-1.020-0.394-2.18-0.67-3.88-0.744-1.716-0.080-2.262-0.1-6.602-0.1-4.346 0-4.89 0.020-6.596 0.094-1.7 0.074-2.868 0.35-3.88 0.744-1.112 0.424-2.060 1.053-2.839 1.849l-0.001 0.001c-0.792 0.78-1.419 1.724-1.826 2.778l-0.018 0.054c-0.394 1.020-0.668 2.18-0.744 3.88-0.080 1.714-0.1 2.26-0.1 6.602 0 4.346 0.020 4.89 0.094 6.596 0.074 1.7 0.35 2.87 0.744 3.882 0.406 1.076 1.038 2.038 1.85 2.838 0.8 0.812 1.77 1.444 2.832 1.844 1.020 0.394 2.18 0.67 3.882 0.744 1.706 0.076 2.25 0.094 6.596 0.094 4.344 0 4.888-0.020 6.594-0.094 1.7-0.074 2.87-0.35 3.882-0.744 2.157-0.85 3.832-2.525 4.663-4.627l0.019-0.055c0.394-1.020 0.67-2.18 0.744-3.882 0.076-1.706 0.094-2.25 0.094-6.596 0-4.344-0.006-4.888-0.080-6.594zM29.088 22.472c-0.070 1.564-0.332 2.408-0.552 2.97-0.551 1.4-1.638 2.488-3.002 3.027l-0.036 0.013c-0.562 0.218-1.412 0.48-2.968 0.548-1.688 0.076-2.194 0.094-6.464 0.094s-4.782-0.020-6.464-0.094c-1.564-0.068-2.408-0.33-2.97-0.55-0.721-0.269-1.335-0.676-1.837-1.193l-0.001-0.001c-0.516-0.504-0.923-1.118-1.183-1.804l-0.011-0.034c-0.22-0.562-0.48-1.412-0.55-2.968-0.074-1.688-0.094-2.196-0.094-6.464 0-4.27 0.020-4.782 0.094-6.464 0.070-1.564 0.332-2.408 0.55-2.97 0.256-0.694 0.664-1.324 1.2-1.838 0.52-0.532 1.144-0.938 1.84-1.194 0.56-0.22 1.412-0.48 2.968-0.55 1.688-0.074 2.194-0.094 6.464-0.094 4.276 0 4.78 0.020 6.464 0.094 1.562 0.070 2.406 0.332 2.968 0.55 0.694 0.256 1.326 0.662 1.84 1.194 0.53 0.52 0.936 1.144 1.192 1.84 0.22 0.56 0.482 1.41 0.55 2.968 0.076 1.688 0.094 2.194 0.094 6.464s-0.018 4.77-0.092 6.456z"></path>
<path  d="M16.060 7.782c-4.462 0.102-8.041 3.743-8.041 8.22s3.578 8.118 8.031 8.22l0.009 0c4.462-0.102 8.041-3.743 8.041-8.22s-3.578-8.118-8.031-8.22l-0.009-0zM16.060 21.336c-2.946 0-5.334-2.388-5.334-5.334s2.388-5.334 5.334-5.334v0c2.946 0 5.334 2.388 5.334 5.334s-2.388 5.334-5.334 5.334v0zM26.524 7.458c0 1.060-0.86 1.92-1.92 1.92s-1.92-0.86-1.92-1.92v0c0-1.060 0.86-1.92 1.92-1.92s1.92 0.86 1.92 1.92v0z"></path>
</symbol>
<symbol id="icon-linkedin" viewBox="0 0 32 32">
<path  d="M31.992 32h0.008v-11.74c0-5.74-1.236-10.164-7.948-10.164-3.226 0-5.392 1.772-6.276 3.45h-0.094v-2.912h-6.362v21.366h6.628v-10.58c0-2.784 0.528-5.476 3.976-5.476 3.4 0 3.45 3.178 3.45 5.656v10.4h6.62zM0.528 10.636h6.634v21.364h-6.634v-21.364zM3.842 0c-2.12 0-3.84 1.72-3.84 3.84s1.72 3.88 3.84 3.88c2.122 0 3.844-1.76 3.844-3.88s-1.726-3.84-3.846-3.84z"></path>
</symbol>
<symbol id="icon-twitter" viewBox="0 0 32 32">
<path  d="M32 6.078c-1.1 0.494-2.376 0.858-3.712 1.029l-0.068 0.007c1.36-0.817 2.381-2.078 2.873-3.58l0.013-0.046c-1.197 0.723-2.591 1.274-4.076 1.574l-0.084 0.014c-1.2-1.279-2.901-2.076-4.788-2.076-3.623 0-6.56 2.937-6.56 6.56v0c0 0.52 0.044 1.020 0.152 1.496-5.468-0.276-10.278-2.878-13.495-6.828l-0.027-0.034c-0.563 0.949-0.895 2.091-0.895 3.311 0 2.264 1.145 4.261 2.888 5.442l0.023 0.015c-1.092-0.030-2.109-0.325-2.997-0.823l0.033 0.017v0.072c0.004 3.164 2.237 5.806 5.213 6.438l0.043 0.008c-0.501 0.137-1.075 0.216-1.669 0.216-0.018 0-0.036-0-0.054-0l0.003 0c-0.031 0.001-0.067 0.001-0.103 0.001-0.403 0-0.796-0.041-1.176-0.119l0.037 0.006c0.873 2.624 3.273 4.496 6.121 4.57l0.009 0c-2.214 1.744-5.044 2.798-8.12 2.798-0.005 0-0.010 0-0.015 0h0.001c-0.538 0-1.054-0.024-1.57-0.090 2.826 1.846 6.287 2.944 10.004 2.944 0.021 0 0.042-0 0.063-0h-0.003c12.072 0 18.672-10 18.672-18.668 0-0.29-0.010-0.57-0.024-0.848 1.299-0.937 2.391-2.066 3.258-3.359l0.030-0.047z"></path>
</symbol>
<symbol id="icon-logo" viewBox="0 0 40 32">
<path d="M22.595 9.883l-0.743-0.565c-0.097-0.078-0.222-0.126-0.357-0.126-0.175 0-0.332 0.079-0.437 0.204l-0.001 0.001-10.293 11.757 0.159 0.175 2.549-2.338c-0.145-0.059-0.245-0.199-0.245-0.363 0-0.027 0.003-0.053 0.008-0.079l-0 0.003c0.037-0.179 0.193-0.312 0.381-0.312 0.003 0 0.007 0 0.010 0h-0.001c0.172 0 0.318 0.113 0.368 0.268l0.001 0.003 3.361-3.1c0.049-0.040 0.113-0.064 0.182-0.064s0.132 0.024 0.182 0.064l-0.001-0 0.17 0.124c0.046 0.033 0.103 0.053 0.166 0.053 0.086 0 0.163-0.038 0.215-0.098l0-0 4.394-4.902c0.080-0.084 0.129-0.198 0.129-0.323 0-0.157-0.078-0.297-0.196-0.382l-0.001-0.001z"></path>
<path d="M27.433 13.192c-2.127 1.522-4.61 2.714-7.287 3.436l-0.161 0.037c-2.385 0.631-5.16 1.059-8.011 1.194l-0.091 0.003c0.055 0.401 0.154 0.794 0.295 1.174 1.544 1.389 13.171-0.983 15.442-3.727 0.483-0.57-0.187-2.118-0.187-2.118zM13.625 18.992c-0.16-0-0.297-0.097-0.356-0.235l-0.001-0.003c-0.019-0.043-0.030-0.094-0.030-0.147 0-0.106 0.043-0.202 0.113-0.271l0-0c0.070-0.070 0.166-0.113 0.273-0.113 0.214 0 0.387 0.173 0.387 0.387 0 0.052-0.010 0.102-0.029 0.148l0.001-0.003c-0.058 0.14-0.193 0.236-0.351 0.236-0.003 0-0.005-0-0.008-0h0zM2.64 12.379l0.090-0.39 1.476 0.333c0.122 0.224 0.197 0.47 0.222 0.723 0.029 0.269 0.011 0.539-0.051 0.802-0.079 0.381-0.25 0.714-0.49 0.985l0.002-0.002c-0.23 0.258-0.526 0.453-0.861 0.561l-0.014 0.004c-0.183 0.058-0.393 0.092-0.612 0.092-0.164 0-0.323-0.019-0.476-0.055l0.014 0.003c-0.371-0.081-0.692-0.256-0.95-0.498l0.001 0.001c-0.254-0.233-0.442-0.534-0.536-0.874l-0.003-0.013c-0.049-0.169-0.076-0.364-0.076-0.565s0.028-0.395 0.080-0.58l-0.004 0.015c0.061-0.277 0.17-0.541 0.323-0.779 0.145-0.217 0.339-0.397 0.568-0.526l0.205 0.311c-0.388 0.24-0.664 0.629-0.748 1.086l-0.002 0.010c-0.031 0.123-0.049 0.265-0.049 0.41 0 0.169 0.024 0.333 0.069 0.488l-0.003-0.012c0.076 0.274 0.227 0.523 0.437 0.717 0.215 0.207 0.485 0.35 0.778 0.413 0.13 0.038 0.28 0.059 0.434 0.059s0.304-0.022 0.446-0.062l-0.011 0.003c0.281-0.094 0.52-0.251 0.709-0.456l0.001-0.001c0.198-0.228 0.335-0.502 0.398-0.797 0.035-0.131 0.056-0.281 0.056-0.435 0-0.232-0.046-0.453-0.129-0.655l0.004 0.011-1.3-0.327zM5.853 8.827l-1.323 1.756 0.567 1.011-0.261 0.35-2.101-3.811 0.244-0.334 4.275 0.915-0.267 0.35-1.135-0.237zM5.478 8.737l-2.271-0.509 1.135 2.027 1.135-1.519zM5.478 5.185l0.341-0.254 2.163 2.88 1.783-1.327 0.215 0.288-2.118 1.575-2.385-3.162zM9.055 2.83l0.38-0.169 1.499 3.264 2.027-0.915 0.148 0.327-2.407 1.090-1.646-3.597zM16.537 4.129l0.086 0.356-2.737 0.638-0.909-3.851 2.657-0.615 0.080 0.35-2.271 0.526 0.323 1.366 1.998-0.469 0.086 0.35-2.005 0.463 0.341 1.429 2.35-0.542zM20.438 4.27l-0.949-1.242c-0.106 0.006-0.211 0.006-0.318 0l-1.067 0.034 0.040 1.254h-0.42l-0.131-3.953 1.51-0.006c0.049-0.005 0.107-0.008 0.165-0.008 0.389 0 0.75 0.124 1.044 0.334l-0.006-0.004c0.285 0.23 0.466 0.579 0.466 0.97 0 0.005-0 0.009-0 0.014v-0.001c0.017 0.279-0.057 0.555-0.21 0.79-0.162 0.222-0.387 0.389-0.649 0.477l-0.009 0.003 0.994 1.321-0.46 0.017zM20.040 2.411c0.18-0.165 0.293-0.401 0.293-0.664 0-0.027-0.001-0.053-0.003-0.080l0 0.003c0-0.006 0-0.013 0-0.020 0-0.283-0.13-0.536-0.333-0.702l-0.002-0.001c-0.217-0.148-0.485-0.236-0.774-0.236-0.041 0-0.082 0.002-0.123 0.005l0.005-0-1.079 0.039 0.069 1.977 1.055-0.034c0.015 0.001 0.033 0.001 0.051 0.001 0.318 0 0.611-0.109 0.843-0.291l-0.003 0.002zM23.441 3.219l-0.205 1.35-0.414-0.062 0.21-1.327-1.175-2.823 0.443 0.067 1.005 2.406 1.703-1.993 0.398 0.085-1.965 2.298zM29.056 2.982l0.494 0.638-0.216 0.17-0.494-0.655-0.313 0.739-0.238-0.102 0.318-0.739-0.817 0.107v-0.272l0.806-0.090-0.499-0.638 0.222-0.169 0.437 0.643 0.306-0.745 0.245 0.102-0.29 0.757 0.817-0.113v0.277l-0.777 0.090zM30.953 7.534c-0.128-0.194-0.215-0.426-0.243-0.676l-0.001-0.007 0.335-0.147c0.025 0.224 0.099 0.44 0.216 0.633 0.127 0.217 0.292 0.408 0.488 0.565 0.196 0.187 0.449 0.315 0.731 0.355l0.007 0.001c0.017 0.002 0.037 0.003 0.057 0.003 0.191 0 0.362-0.086 0.476-0.222l0.001-0.001c0.082-0.090 0.133-0.21 0.133-0.342 0-0.015-0.001-0.029-0.002-0.044l0 0.002c-0.021-0.146-0.069-0.278-0.139-0.394l0.003 0.005c-0.12-0.195-0.235-0.359-0.356-0.517l0.010 0.014c-0.14-0.18-0.275-0.383-0.395-0.596l-0.013-0.025c-0.089-0.153-0.143-0.335-0.148-0.529l-0-0.001c0-0.209 0.079-0.411 0.222-0.565 0.123-0.149 0.287-0.261 0.471-0.322 0.206-0.059 0.425-0.059 0.63 0 0.265 0.086 0.511 0.225 0.721 0.406 0.175 0.145 0.33 0.312 0.46 0.497 0.12 0.171 0.211 0.363 0.267 0.565l-0.323 0.17c-0.062-0.202-0.147-0.379-0.255-0.538l0.004 0.007c-0.111-0.148-0.236-0.276-0.376-0.386l-0.004-0.003c-0.193-0.186-0.446-0.311-0.727-0.344l-0.006-0.001c-0.015-0.001-0.033-0.002-0.051-0.002-0.195 0-0.369 0.091-0.482 0.232l-0.001 0.001c-0.083 0.087-0.133 0.205-0.133 0.334 0 0.018 0.001 0.035 0.003 0.052l-0-0.002c0.014 0.143 0.060 0.28 0.137 0.401 0.080 0.13 0.193 0.299 0.346 0.503 0.152 0.192 0.289 0.396 0.409 0.61 0.095 0.161 0.147 0.344 0.154 0.53 0 0.21-0.079 0.411-0.222 0.565-0.124 0.151-0.29 0.263-0.477 0.322-0.206 0.062-0.425 0.062-0.63 0-0.28-0.092-0.523-0.231-0.73-0.409l0.003 0.002c-0.226-0.196-0.416-0.428-0.561-0.687l-0.007-0.013zM36.664 8.358l-0.801-1.13 0.295-0.209 1.845 2.62-0.295 0.209-0.801-1.13-2.963 2.061-0.239-0.344 2.958-2.078zM35.392 13c0.107-0.353 0.305-0.651 0.566-0.879l0.002-0.002c0.254-0.227 0.57-0.392 0.918-0.466l0.013-0.002c0.138-0.033 0.297-0.052 0.46-0.052 0.217 0 0.426 0.033 0.622 0.095l-0.015-0.004c0.345 0.115 0.638 0.31 0.867 0.563l0.002 0.002c0.245 0.28 0.411 0.618 0.483 0.983 0.045 0.163 0.071 0.351 0.071 0.545s-0.026 0.381-0.074 0.56l0.003-0.015c-0.11 0.352-0.307 0.649-0.566 0.879l-0.002 0.002c-0.371 0.332-0.864 0.535-1.404 0.535-0.222 0-0.437-0.034-0.638-0.098l0.015 0.004c-0.347-0.11-0.641-0.305-0.867-0.562l-0.002-0.002c-0.235-0.268-0.404-0.598-0.48-0.963l-0.002-0.014c-0.037-0.15-0.058-0.322-0.058-0.499 0-0.216 0.032-0.425 0.091-0.623l-0.004 0.015zM36.136 14.796c0.19 0.214 0.435 0.373 0.71 0.457 0.147 0.044 0.315 0.069 0.49 0.069 0.443 0 0.848-0.163 1.159-0.432l-0.002 0.002c0.21-0.192 0.365-0.435 0.449-0.706 0.042-0.145 0.066-0.312 0.066-0.484 0-0.45-0.165-0.862-0.437-1.179l0.002 0.002c-0.194-0.211-0.441-0.369-0.721-0.454l-0.011-0.003c-0.131-0.036-0.282-0.057-0.437-0.057s-0.306 0.021-0.449 0.059l0.012-0.003c-0.301 0.059-0.564 0.196-0.774 0.39l0.001-0.001c-0.211 0.193-0.366 0.439-0.449 0.712-0.037 0.131-0.058 0.282-0.058 0.437s0.021 0.306 0.061 0.449l-0.003-0.012c0.063 0.28 0.198 0.539 0.392 0.751zM34.961 19.557l1.47-0.565c0-0.102 0.034-0.203 0.063-0.31l0.278-1.022-1.203-0.31 0.108-0.401 3.838 1.022-0.386 1.429c-0.092 0.43-0.328 0.794-0.655 1.048l-0.004 0.003c-0.195 0.137-0.438 0.218-0.7 0.218-0.136 0-0.266-0.022-0.388-0.062l0.009 0.003c-0.282-0.062-0.522-0.214-0.694-0.424l-0.002-0.002c-0.17-0.207-0.273-0.474-0.274-0.765v-0l-1.567 0.565 0.108-0.424zM36.862 19.714c0.135 0.24 0.358 0.418 0.624 0.49l0.007 0.002c0.079 0.022 0.17 0.034 0.264 0.034 0.196 0 0.379-0.055 0.535-0.15l-0.005 0.003c0.244-0.196 0.418-0.472 0.481-0.787l0.001-0.009 0.273-1.017-1.925-0.514-0.273 1.017c-0.047 0.132-0.074 0.284-0.074 0.442 0 0.176 0.034 0.344 0.095 0.498l-0.003-0.009zM32.922 23.193l-0.29-0.221 1.703-2.23 3.168 2.389-1.646 2.163-0.29-0.22 1.391-1.824-1.135-0.853-1.243 1.632-0.283-0.214 1.271-1.632-1.175-0.887-1.47 1.897zM31.594 27.694l-0.811 0.046v-0.271l0.811-0.006-0.437-0.672 0.221-0.141 0.431 0.678 0.352-0.757 0.245 0.13-0.386 0.711 0.811-0.046v0.277h-0.823l0.437 0.672-0.221 0.141-0.431-0.678-0.375 0.734-0.238-0.135 0.414-0.683zM24.214 27.242l0.687 0.379c0.234-0.442 0.638-0.766 1.123-0.89l0.012-0.003c0.226-0.070 0.463-0.095 0.698-0.073 0.204 0.015 0.4 0.086 0.568 0.203 0.151 0.114 0.262 0.272 0.318 0.452 0.069 0.223 0.057 0.463-0.034 0.678-0.143 0.292-0.334 0.558-0.567 0.785 0.187 0.1 0.361 0.223 0.517 0.367 0.107 0.11 0.187 0.243 0.233 0.39 0.015 0.056 0.023 0.119 0.023 0.185 0 0.181-0.064 0.347-0.172 0.477l0.001-0.001c-0.151 0.217-0.378 0.371-0.636 0.435-0.227 0.086-0.477 0.086-0.704 0-0.202-0.088-0.353-0.262-0.407-0.475l-0.001-0.005c-0.060-0.186-0.046-0.389 0.040-0.565 0.13-0.257 0.301-0.491 0.505-0.695l-1.368-0.757c-0.032 0.155-0.050 0.333-0.050 0.516 0 0.103 0.006 0.204 0.017 0.304l-0.001-0.012h-0.346c-0.023-0.331 0.015-0.665 0.114-0.983l-0.716-0.395 0.148-0.317zM25.201 27.807l1.505 0.83c0.197-0.187 0.361-0.407 0.483-0.649 0.030-0.075 0.047-0.163 0.047-0.254s-0.017-0.179-0.048-0.259l0.002 0.005c-0.054-0.2-0.203-0.357-0.393-0.422l-0.004-0.001c-0.108-0.038-0.233-0.059-0.363-0.059s-0.255 0.022-0.371 0.062l0.008-0.002c-0.394 0.106-0.711 0.374-0.882 0.726l-0.004 0.008 0.023 0.017zM27.336 30.066c0.045-0.074 0.071-0.163 0.071-0.259 0-0.057-0.009-0.112-0.027-0.163l0.001 0.004c-0.037-0.116-0.1-0.215-0.181-0.294l-0-0c-0.137-0.116-0.292-0.219-0.458-0.304l-0.014-0.006c-0.168 0.166-0.317 0.351-0.441 0.552l-0.007 0.013c-0.042 0.077-0.067 0.168-0.067 0.266 0 0.054 0.008 0.107 0.022 0.156l-0.001-0.004c0.038 0.133 0.129 0.24 0.247 0.298l0.003 0.001c0.145 0.054 0.304 0.054 0.449 0 0.154-0.041 0.289-0.135 0.38-0.265l0.023 0.006zM17.293 31.596l0.079-3.953h0.403l-0.063 3.162 1.613-2.631h0.198l1.51 2.677 0.057-3.145h0.403l-0.074 3.953h-0.346l-1.669-2.953-1.766 2.897-0.346-0.006zM15.317 27.462c0.37 0.351 0.6 0.846 0.6 1.395 0 0.199-0.030 0.392-0.087 0.573l0.004-0.014c-0.099 0.363-0.287 0.674-0.539 0.92l-0 0c-0.245 0.24-0.555 0.414-0.901 0.495l-0.013 0.003c-0.364 0.082-0.743 0.070-1.101-0.034-0.372-0.092-0.695-0.271-0.956-0.515l0.001 0.001c-0.249-0.237-0.433-0.539-0.524-0.879l-0.003-0.013c-0.039-0.15-0.061-0.323-0.061-0.5 0-0.583 0.241-1.11 0.629-1.487l0.001-0c0.247-0.246 0.558-0.422 0.897-0.509 0.145-0.034 0.311-0.053 0.481-0.053 0.219 0 0.43 0.032 0.63 0.092l-0.016-0.004c0.361 0.091 0.691 0.274 0.959 0.531zM13.381 27.265c-0.278 0.064-0.531 0.206-0.733 0.407-0.203 0.201-0.353 0.455-0.429 0.739l-0.003 0.011c-0.038 0.129-0.059 0.278-0.059 0.432s0.022 0.303 0.062 0.443l-0.003-0.011c0.067 0.275 0.211 0.526 0.414 0.723 0.214 0.208 0.478 0.358 0.767 0.434 0.132 0.035 0.284 0.055 0.44 0.055s0.308-0.020 0.452-0.058l-0.012 0.003c0.289-0.072 0.538-0.214 0.738-0.406l-0.001 0c0.202-0.202 0.352-0.456 0.429-0.74l0.003-0.012c0.038-0.13 0.060-0.28 0.060-0.435s-0.022-0.305-0.062-0.446l0.003 0.011c-0.077-0.285-0.223-0.529-0.42-0.723l-0-0c-0.209-0.202-0.469-0.352-0.76-0.427l-0.012-0.003c-0.131-0.037-0.282-0.059-0.437-0.059s-0.306 0.022-0.449 0.062l0.012-0.003zM9.083 24.639l0.153 1.553c0.097 0.042 0.193 0.089 0.284 0.141l0.926 0.531 0.624-1.096 0.369 0.209-1.987 3.405-1.295-0.74c-0.382-0.193-0.679-0.508-0.847-0.891l-0.005-0.012c-0.044-0.122-0.069-0.262-0.069-0.408 0-0.247 0.072-0.477 0.197-0.67l-0.003 0.005c0.134-0.248 0.339-0.443 0.588-0.561l0.008-0.003c0.149-0.063 0.322-0.099 0.503-0.099 0.111 0 0.22 0.014 0.323 0.040l-0.009-0.002-0.164-1.661 0.403 0.26zM8.435 26.423c-0.274 0.070-0.499 0.244-0.635 0.476l-0.003 0.005c-0.085 0.145-0.135 0.319-0.135 0.505 0 0.102 0.015 0.2 0.043 0.292l-0.002-0.007c0.133 0.292 0.363 0.53 0.653 0.672l0.914 0.526 0.994-1.695-0.914-0.525c-0.232-0.174-0.524-0.279-0.84-0.279-0.026 0-0.052 0.001-0.077 0.002l0.004-0v0.029zM5.722 21.99l0.255-0.254 1.959 2.005-2.839 2.757-1.891-1.943 0.261-0.254 1.607 1.642 0.971-0.977-1.408-1.457 0.273-0.259 1.437 1.468 1.056-1.022-1.681-1.705zM1.504 19.771l0.137-0.78 0.267 0.040-0.153 0.802 0.754-0.277 0.091 0.248-0.766 0.26 0.63 0.531-0.181 0.203-0.608-0.565-0.142 0.802-0.273-0.051 0.159-0.801-0.761 0.271-0.086-0.221 0.761-0.265-0.63-0.526 0.187-0.203 0.613 0.531z"></path>
</symbol>
</defs>
</svg>
